<?xml version="1.0" standalone="no"?>
<!DOCTYPE svg PUBLIC "-//W3C//DTD SVG 20010904//EN"
 "http://www.w3.org/TR/2001/REC-SVG-20010904/DTD/svg10.dtd">
<svg version="1.0" xmlns="http://www.w3.org/2000/svg"
 width="500.000000pt" height="500.000000pt" viewBox="0 0 500.000000 500.000000"
 preserveAspectRatio="xMidYMid meet">

<g transform="translate(0.000000,500.000000) scale(0.100000,-0.100000)"
fill="rgb(0, 36, 84)" stroke="rgb(0, 36, 84)" stroke-width="20">
<path d="M1365 4991 c-45 -12 -76 -30 -118 -70 -69 -65 -71 -75 -77 -291 l-5
-195 -220 -5 c-218 -5 -220 -5 -267 -33 -26 -15 -59 -42 -72 -60 -50 -65 -56
-102 -56 -332 0 -200 1 -214 21 -239 28 -35 70 -35 98 0 20 25 21 39 21 231 0
301 -6 295 282 291 l193 -3 5 -100 c6 -111 21 -147 86 -204 49 -44 100 -62
170 -62 75 0 118 17 174 68 59 52 80 105 87 213 l6 90 272 0 273 0 4 -92 c4
-76 9 -103 31 -145 45 -88 124 -133 231 -133 86 0 158 37 203 104 41 61 53
103 53 194 l0 72 274 0 273 0 6 -90 c7 -108 28 -161 87 -213 56 -51 99 -68
174 -68 70 0 121 18 170 62 65 57 80 93 86 204 l5 100 193 3 c157 2 198 0 222
-13 64 -33 60 80 60 -1618 0 -1486 1 -1546 18 -1568 26 -31 78 -31 104 0 17
22 18 82 18 1571 0 1679 3 1600 -54 1675 -15 19 -48 47 -74 62 -47 28 -49 28
-267 33 l-220 5 -5 195 c-5 181 -7 198 -28 232 -117 188 -374 176 -465 -22
-18 -39 -22 -69 -25 -227 l-4 -183 -274 0 -274 0 0 168 c0 210 -11 254 -80
322 -48 49 -118 80 -180 80 -62 0 -132 -31 -180 -80 -69 -68 -80 -112 -80
-322 l0 -168 -274 0 -274 0 -4 183 c-3 144 -8 190 -22 222 -21 49 -79 110
-128 136 -42 21 -129 32 -173 20z m148 -181 l27 -30 0 -325 0 -325 -27 -30
c-50 -55 -125 -56 -174 -4 l-24 26 0 333 0 333 24 26 c49 52 124 51 174 -4z
m1055 23 c49 -31 53 -59 50 -393 -3 -295 -4 -310 -24 -337 -45 -61 -143 -61
-188 0 -20 28 -21 39 -21 352 0 313 1 324 21 352 37 50 106 61 162 26z m1092
-18 l25 -25 0 -334 0 -334 -24 -26 c-49 -52 -124 -51 -173 4 l-28 30 0 324 0
324 26 31 c46 55 122 58 174 6z"/>
<path d="M574 3515 l-24 -24 2 -1653 3 -1653 22 -41 c12 -22 40 -57 62 -77 79
-72 -48 -67 1861 -67 1909 0 1782 -5 1861 67 22 20 50 55 62 77 21 39 22 55
25 358 3 308 2 318 -17 337 -24 24 -69 27 -97 7 -18 -14 -19 -32 -24 -324 l-5
-310 -24 -26 c-14 -14 -41 -30 -60 -36 -49 -14 -3393 -14 -3442 0 -19 6 -46
22 -60 36 l-24 26 -5 1645 -5 1645 -24 19 c-31 26 -57 24 -87 -6z"/>
<path d="M1763 3515 c-12 -9 -108 -119 -213 -245 -105 -127 -194 -230 -198
-230 -4 1 -29 35 -57 78 -46 71 -53 77 -87 80 -41 3 -78 -26 -78 -62 0 -11 37
-80 82 -153 85 -137 101 -152 151 -140 20 6 463 525 494 580 19 33 15 55 -12
82 -28 29 -51 31 -82 10z"/>
<path d="M2115 3251 c-73 -18 -133 -70 -163 -141 -23 -56 -12 -151 24 -202 34
-49 81 -83 133 -98 23 -6 328 -10 827 -10 884 0 859 -2 926 67 19 21 43 52 52
70 23 46 21 144 -4 192 -26 53 -92 107 -145 120 -50 13 -1599 14 -1650 2z
m1644 -157 c39 -32 43 -85 9 -121 l-21 -23 -809 0 -809 0 -24 25 c-41 40 -26
113 29 135 11 5 375 9 808 9 l786 1 31 -26z"/>
<path d="M1748 2538 c-13 -13 -106 -123 -207 -245 -101 -123 -186 -223 -190
-223 -3 0 -26 34 -51 75 -41 69 -70 95 -106 95 -21 0 -64 -46 -64 -68 0 -32
153 -275 183 -292 24 -13 30 -13 55 0 34 19 491 567 499 598 15 61 -74 106
-119 60z"/>
<path d="M2110 2281 c-103 -32 -170 -116 -170 -212 0 -93 46 -171 123 -208 43
-21 52 -21 873 -21 786 0 831 1 869 19 181 84 162 359 -29 416 -42 13 -173 15
-845 14 -438 0 -807 -4 -821 -8z m1649 -157 c39 -32 43 -85 9 -121 l-21 -23
-807 0 c-893 0 -843 -4 -856 65 -7 40 14 81 49 95 12 5 376 9 809 9 l786 1 31
-26z"/>
<path d="M1767 1579 c-11 -6 -108 -118 -217 -250 l-198 -238 -51 80 c-28 44
-60 83 -73 88 -45 16 -98 -19 -98 -65 0 -19 130 -236 163 -271 25 -28 67 -30
95 -5 28 23 440 519 463 557 25 40 24 61 -6 90 -26 27 -49 31 -78 14z"/>
<path d="M2086 1305 c-49 -17 -103 -68 -127 -120 -43 -93 -7 -220 79 -280 l44
-30 831 -3 c587 -2 843 0 870 8 21 6 56 27 77 46 52 48 74 106 68 188 -5 85
-40 138 -117 178 l-53 28 -817 0 c-668 -1 -823 -3 -855 -15z m1657 -137 c53
-28 64 -92 22 -133 l-24 -25 -806 0 c-788 0 -805 0 -825 20 -43 43 -34 110 20
137 35 18 1581 19 1613 1z"/>
</g>
</svg>
